<?xml version="1.0" encoding="UTF-8" standalone="no"?>
<!-- Created with Inkscape (http://www.inkscape.org/) -->

<svg
   xmlns:dc="http://purl.org/dc/elements/1.1/"
   xmlns:cc="http://creativecommons.org/ns#"
   xmlns:rdf="http://www.w3.org/1999/02/22-rdf-syntax-ns#"
   xmlns:svg="http://www.w3.org/2000/svg"
   xmlns="http://www.w3.org/2000/svg"
   xmlns:sodipodi="http://sodipodi.sourceforge.net/DTD/sodipodi-0.dtd"
   xmlns:inkscape="http://www.inkscape.org/namespaces/inkscape"
   width="34.493652mm"
   height="139.96263mm"
   viewBox="0 0 34.493653 139.96263"
   version="1.1"
   id="svg8"
   inkscape:version="0.92.3 (2405546, 2018-03-11)"
   sodipodi:docname="relwork.svg">
  <defs
     id="defs2" />
  <sodipodi:namedview
     id="base"
     pagecolor="#ffffff"
     bordercolor="#666666"
     borderopacity="1.0"
     inkscape:pageopacity="0.0"
     inkscape:pageshadow="2"
     inkscape:zoom="0.98994949"
     inkscape:cx="-96.577152"
     inkscape:cy="250.6651"
     inkscape:document-units="mm"
     inkscape:current-layer="layer1"
     showgrid="false"
     fit-margin-top="0"
     fit-margin-left="0"
     fit-margin-right="0"
     fit-margin-bottom="0"
     inkscape:window-width="1918"
     inkscape:window-height="1042"
     inkscape:window-x="0"
     inkscape:window-y="18"
     inkscape:window-maximized="0" />
  <metadata
     id="metadata5">
    <rdf:RDF>
      <cc:Work
         rdf:about="">
        <dc:format>image/svg+xml</dc:format>
        <dc:type
           rdf:resource="http://purl.org/dc/dcmitype/StillImage" />
        <dc:title></dc:title>
      </cc:Work>
    </rdf:RDF>
  </metadata>
  <g
     inkscape:label="Layer 1"
     inkscape:groupmode="layer"
     id="layer1"
     transform="translate(162.54071,62.955354)">
    <g
       id="g3455"
       transform="matrix(0.13076721,0,0,0.13076721,-161.92152,-19.9316)"
       style="stroke-width:2.02331567">
      <g
         id="g3388"
         style="stroke-width:2.02331567">
	<g
   id="g3386"
   style="stroke-width:2.02331567">
		<path
   id="path3378"
   d="m 14.3,321.5 c 0,-18.2 11.4,-31.7 29.3,-31.7 17.9,0 29.3,13.5 29.3,31.7 0,18.2 -11.3,31.6 -29.3,31.6 -17.9,0 -29.3,-13.4 -29.3,-31.6 z m 46,0 c 0,-12.2 -5.4,-21.6 -16.6,-21.6 -11.1,0 -16.8,9.4 -16.8,21.6 0,12.1 5.7,21.5 16.8,21.5 11.2,0 16.6,-9.4 16.6,-21.5 z"
   class="st0"
   inkscape:connector-curvature="0"
   style="fill:#e86161;stroke-width:2.02331567" />

		<path
   id="path3380"
   d="m 79.6,291 h 27.9 c 11.7,0 19.6,6.8 19.6,16.9 0,7.1 -3.3,12.6 -11.1,14.7 v 0.3 c 5.6,1.6 8.5,4.8 9.3,12.2 0.9,8.6 0.5,15.1 2.6,16.1 v 0.6 H 116 c -1.5,-0.7 -1.7,-7.5 -2.2,-14 -0.5,-6.6 -4.3,-10.4 -11.9,-10.4 h -10 v 24.4 H 79.6 Z m 12.3,26.8 H 105 c 6.7,0 10,-3.5 10,-8.3 0,-4.9 -3.1,-8.6 -9.7,-8.6 H 91.9 Z"
   class="st0"
   inkscape:connector-curvature="0"
   style="fill:#e86161;stroke-width:2.02331567" />

		<path
   id="path3382"
   d="m 135,291 h 12.3 v 24.2 L 170.7,291 H 186 l -23.8,24.3 25.3,36.5 H 173 l -19.6,-28.4 -6.2,6.3 v 22.1 H 135 Z"
   class="st0"
   inkscape:connector-curvature="0"
   style="fill:#e86161;stroke-width:2.02331567" />

		<path
   id="path3384"
   d="m 231.3,343.6 h -0.2 c -4.2,7 -9.9,9.4 -17.1,9.4 -9.2,0 -16.3,-3.3 -21.3,-8.8 -5,-5.6 -7.9,-13.4 -7.9,-22.6 0,-10.1 3.6,-19 9.9,-24.8 4.9,-4.5 11.4,-7 19.6,-7 15.3,0 24.1,8.4 26,20.3 h -12.1 c -1.4,-5.9 -5.9,-10.1 -13.7,-10.1 -11.5,0 -17.2,9.5 -17.2,21.6 0,12.4 6.5,21.5 17,21.5 9.4,0 15.6,-7.1 15.6,-13.8 V 329 h -14.6 v -9.5 H 241 v 32.3 h -9.3 z"
   class="st0"
   inkscape:connector-curvature="0"
   style="fill:#e86161;stroke-width:2.02331567" />

	</g>

</g>
      <g
         id="g3422"
         style="stroke-width:2.02331567">
	<path
   id="path3390"
   d="m 234.9,82.9 v -2.1 c -0.1,-0.7 -0.2,-1.4 -0.2,-2.1 -0.4,-2.8 -1.3,-5.7 -2.9,-8.2 -1.5,-2.6 -3.6,-4.7 -5.8,-6.4 -2.3,-1.6 -4.8,-2.8 -7.2,-3.6 -5,-1.6 -9.9,-2 -14.8,-2 -4.8,0.1 -9.5,0.7 -14.2,1.6 -9.2,1.8 -18.1,4.7 -26.6,8.2 4.5,-0.9 9,-1.8 13.6,-2.4 4.5,-0.7 9.1,-1.1 13.6,-1.4 4.5,-0.2 9,-0.2 13.3,0.3 4.3,0.5 8.6,1.4 12.2,3 3.6,1.7 6.5,4.1 7.8,7.1 1.4,3 1.4,6.6 0.6,10.3 -0.9,3.7 -2.5,7.6 -4.6,11.2 -2,3.7 -4.5,7.2 -7.1,10.7 -1.6,2.1 -3.3,4.1 -5.1,6.2 4,2 7.3,5.2 9.6,9 2,-2.5 3.9,-5.1 5.7,-7.8 2.7,-4 5.2,-8.3 7.3,-12.8 2.1,-4.5 3.8,-9.4 4.5,-14.7 0.1,-0.7 0.1,-1.4 0.2,-2 l 0.1,-1 c 0.1,-0.4 0,-0.8 0,-1.1 z"
   class="st0"
   inkscape:connector-curvature="0"
   style="fill:#e86161;stroke-width:2.02331567" />

	<circle
   id="circle3392"
   r="16.799999"
   cy="134"
   cx="197.10001"
   class="st0"
   style="fill:#e86161;stroke-width:2.02331567" />

	<g
   id="g3398"
   style="stroke-width:2.02331567">
		<path
   id="path3394"
   d="m 65.4,198.9 c 0,-0.6 0,-1.1 0.1,-1.7 -3.7,0.8 -7.4,1.4 -11.1,1.8 -2.1,0.2 -4.2,0.4 -6.3,0.5 -2.1,0.1 -4.1,0 -6.1,-0.1 -4,-0.3 -7.8,-1.1 -10.8,-2.6 -3,-1.5 -5,-3.6 -6,-6.5 -1,-2.9 -0.9,-6.7 0,-10.6 0.9,-3.9 2.5,-7.9 4.4,-11.7 2,-3.9 4.2,-7.7 6.8,-11.3 5,-7.4 10.8,-14.4 17,-21.1 6.2,-6.7 12.7,-13.1 19.5,-19.4 -7.8,4.9 -15.4,10.2 -22.6,16.2 -7.2,5.9 -14,12.4 -20.1,19.6 -3.1,3.6 -5.9,7.4 -8.6,11.5 -2.6,4.1 -4.9,8.5 -6.5,13.5 -0.8,2.5 -1.4,5.1 -1.7,7.9 -0.2,2.8 -0.1,5.7 0.6,8.7 0.8,3 2.2,5.9 4.1,8.3 1.9,2.5 4.4,4.5 6.9,5.9 2.5,1.5 5.1,2.6 7.7,3.3 2.6,0.8 5.2,1.3 7.8,1.6 5.1,0.7 10.1,0.7 15.1,0.4 4.6,-0.3 9.1,-0.9 13.5,-1.7 -2.4,-3.6 -3.7,-7.9 -3.7,-12.5 z"
   class="st0"
   inkscape:connector-curvature="0"
   style="fill:#e86161;stroke-width:2.02331567" />

		<path
   id="path3396"
   d="m 175.5,142.6 c -0.4,0.3 -0.9,0.7 -1.3,1 -7.1,5.4 -14.5,10.5 -22.1,15.3 -7.6,4.8 -15.3,9.4 -23.2,13.6 -7.5,4 -15.1,7.7 -22.8,11.1 3.5,4 5.6,9.1 5.7,14.8 8.4,-3.5 16.6,-7.5 24.6,-11.7 8.3,-4.5 16.4,-9.3 24.2,-14.4 7.8,-5.2 15.5,-10.7 22.8,-16.6 0.6,-0.5 1.2,-1 1.8,-1.5 -4.3,-2.8 -7.8,-6.8 -9.7,-11.6 z"
   class="st0"
   inkscape:connector-curvature="0"
   style="fill:#e86161;stroke-width:2.02331567" />

	</g>

	<circle
   id="circle3400"
   r="16.799999"
   cy="198.89999"
   cx="88.599998"
   class="st1"
   style="fill:#c0c2cc;stroke-width:2.02331567" />

	<path
   id="path3402"
   d="m 86.7,45.2 c 4.9,0 9.4,1.5 13.1,4.1 1.1,-3.1 2.3,-6.2 3.6,-9.1 1.7,-3.9 3.7,-7.6 6,-10.8 0.6,-0.8 1.1,-1.6 1.8,-2.3 l 0.9,-1.1 1,-1 c 0.6,-0.7 1.3,-1.2 2,-1.8 0.3,-0.3 0.7,-0.5 1,-0.8 0.3,-0.3 0.7,-0.5 1,-0.7 l 1,-0.6 c 0.4,-0.1 0.7,-0.3 1.1,-0.4 0.3,-0.2 0.7,-0.2 1.1,-0.3 0.4,-0.1 0.7,-0.2 1.1,-0.3 1.4,-0.3 2.9,-0.2 4.4,0.1 3,0.7 6.2,2.8 9.1,5.6 1.5,1.4 2.8,3 4.1,4.6 1.3,1.7 2.5,3.4 3.7,5.2 2.4,3.6 4.4,7.5 6.4,11.6 3.8,8 7,16.6 9.7,25.2 2.7,8.7 5,17.6 7,26.6 -0.1,-4.6 -0.5,-9.2 -0.9,-13.8 -0.5,-4.6 -1,-9.2 -1.8,-13.8 -1.5,-9.2 -3.6,-18.3 -6.7,-27.2 C 154.8,39.7 153,35.3 150.8,31 148.6,26.7 146,22.5 142.6,18.6 140.9,16.7 139,14.8 136.8,13.1 134.6,11.5 132,10 129.2,9 126.3,8 123.1,7.6 120,7.9 c -0.8,0 -1.5,0.2 -2.3,0.3 -0.8,0.2 -1.5,0.3 -2.3,0.6 l -2.2,0.8 c -0.7,0.3 -1.3,0.6 -2,1 -0.7,0.3 -1.3,0.7 -1.9,1.1 -0.6,0.4 -1.2,0.8 -1.8,1.2 -1.1,0.9 -2.3,1.7 -3.2,2.6 l -1.5,1.4 -1.4,1.5 c -0.9,1 -1.7,2 -2.6,3 -3.2,4.1 -5.8,8.4 -8,12.8 -1.9,3.7 -3.5,7.4 -4.9,11.2 0.1,-0.2 0.4,-0.2 0.8,-0.2 z"
   class="st2"
   inkscape:connector-curvature="0"
   style="fill:#bfc2cd;stroke-width:2.02331567" />

	<g
   id="g3408"
   style="stroke-width:2.02331567">
		<path
   id="path3404"
   d="m 75.9,173.3 c 0.3,1.8 0.6,3.7 0.9,5.5 3.5,-2 7.5,-3.2 11.8,-3.2 1,0 2,0.1 2.9,0.2 -0.2,-1.5 -0.4,-3 -0.6,-4.6 -0.5,-4.4 -1,-8.9 -1.4,-13.3 -0.3,-4.5 -0.6,-8.9 -0.8,-13.4 -0.4,-8.9 -0.4,-17.9 -0.1,-26.8 0.3,-8.8 1,-17.7 2,-26.4 -1.3,0.2 -2.7,0.4 -4.1,0.4 -4.2,0 -8.1,-1.1 -11.5,-3.1 0,0.1 0,0.3 -0.1,0.4 -1.2,9.4 -2,18.7 -2.4,28.1 -0.3,9.4 -0.2,18.8 0.3,28.2 0.8,9.4 1.7,18.7 3.1,28 z"
   class="st2"
   inkscape:connector-curvature="0"
   style="fill:#bfc2cd;stroke-width:2.02331567" />

		<path
   id="path3406"
   d="m 151.1,227 c -1.1,2 -2.2,3.9 -3.3,5.8 -1.2,1.9 -2.4,3.7 -3.7,5.4 -2.6,3.5 -5.6,6.6 -8.9,8.7 -3.3,2.1 -6.8,3.1 -10.1,2.5 -0.2,0 -0.4,-0.1 -0.6,-0.1 l -0.6,-0.2 -0.6,-0.1 c -0.2,-0.1 -0.4,-0.2 -0.6,-0.2 -0.4,-0.2 -0.8,-0.3 -1.2,-0.5 l -1.2,-0.6 c -1.5,-0.9 -3,-2 -4.4,-3.5 -2.8,-2.7 -5.2,-6.1 -7.3,-9.8 -2.1,-3.7 -3.9,-7.6 -5.5,-11.6 -0.6,-1.5 -1.2,-3 -1.7,-4.5 -3.6,2.3 -7.8,3.7 -12.4,3.8 0.8,1.9 1.7,3.9 2.6,5.8 2.1,4.4 4.4,8.6 7.2,12.7 2.8,4.1 6,8 10.1,11.4 2,1.7 4.3,3.2 6.9,4.4 2.5,1.2 5.4,2 8.3,2.2 2.9,0.2 5.9,-0.3 8.6,-1.3 2.7,-1 5,-2.4 7.1,-4.1 2,-1.7 3.8,-3.5 5.3,-5.5 1.6,-2 2.9,-4 4.1,-6.1 2.4,-4.2 4.3,-8.5 5.9,-12.9 3.2,-8.8 5.1,-17.9 6.4,-27 -2.9,8.8 -6.3,17.3 -10.4,25.3 z"
   class="st2"
   inkscape:connector-curvature="0"
   style="fill:#bfc2cd;stroke-width:2.02331567" />

	</g>

	<g
   id="g3418"
   style="stroke-width:2.02331567">
		<path
   id="path3410"
   d="m 32.6,69.3 c 3.5,-1.3 7.6,-1.8 11.8,-1.8 4.2,-0.1 8.5,0.3 12.8,0.9 2.1,0.3 4.2,0.7 6.3,1.1 0,-0.4 0,-0.7 0,-1.1 0,-4.2 1.1,-8.2 3.1,-11.6 -2.6,-0.4 -5.3,-0.7 -8,-0.9 -4.9,-0.4 -9.8,-0.5 -14.9,0 -5,0.5 -10.2,1.4 -15.2,3.8 -2.5,1.2 -4.9,2.7 -7.1,4.7 -2.1,2 -4,4.5 -5.1,7.2 -1.1,2.7 -1.7,5.6 -1.7,8.4 0,2.8 0.3,5.4 1,7.9 1.3,5 3.5,9.4 5.9,13.6 2.5,4.1 5.3,8 8.4,11.5 6.1,7.2 12.9,13.6 20.1,19.4 -3,-3.5 -5.9,-7.1 -8.7,-10.8 -2.8,-3.7 -5.4,-7.4 -7.8,-11.2 -2.4,-3.8 -4.6,-7.8 -6.4,-11.8 -1.8,-4 -3.2,-8.2 -3.8,-12.2 -0.6,-4 -0.2,-7.9 1.4,-10.8 1.6,-3 4.4,-5 7.9,-6.3 z"
   class="st3"
   inkscape:connector-curvature="0"
   style="fill:#80869b;stroke-width:2.02331567" />

		<g
   id="g3416"
   style="stroke-width:2.02331567">
			<path
   id="path3412"
   d="m 175.4,125.7 c 1.9,-5.1 5.6,-9.3 10.4,-12 -7.1,-5.7 -14.5,-11.1 -22,-16.1 -7.9,-5.2 -16,-10.1 -24.3,-14.6 -8.3,-4.4 -16.8,-8.6 -25.6,-12.2 -1.3,-0.5 -2.6,-1.1 -3.9,-1.6 -0.2,5.4 -2.1,10.3 -5.3,14.1 1.1,0.5 2.1,0.9 3.2,1.4 8.2,3.7 16.2,7.8 24.1,12.2 7.9,4.4 15.6,9.1 23.1,14.1 6.8,4.6 13.7,9.5 20.3,14.7 z"
   class="st3"
   inkscape:connector-curvature="0"
   style="fill:#80869b;stroke-width:2.02331567" />

			<path
   id="path3414"
   d="m 236.1,185.6 c 0,-5.8 -1.5,-11 -3.4,-15.8 -1.9,-4.8 -4.3,-9.2 -7,-13.4 -2.5,-4 -5.3,-7.8 -8.2,-11.4 -2.4,4.4 -6.1,7.9 -10.7,10.1 2.5,3 5,6 7.1,9.1 2.5,3.5 4.7,7.2 6.4,10.8 1.7,3.7 3,7.5 3.2,10.9 0,0.4 0.1,0.9 0.1,1.3 0,0.4 0,0.8 0,1.2 0,0.4 -0.1,0.8 -0.2,1.2 l -0.1,0.6 -0.2,0.5 c -0.4,1.5 -1,2.8 -2,3.9 -1,1.2 -2.2,2.2 -3.8,3.1 -0.7,0.5 -1.6,0.8 -2.5,1.2 -0.9,0.3 -1.8,0.7 -2.7,1 -0.9,0.3 -1.9,0.5 -2.9,0.8 -1,0.2 -2,0.4 -3.1,0.5 -2.1,0.3 -4.2,0.4 -6.4,0.5 -4.3,0.2 -8.8,-0.1 -13.2,-0.5 -8.9,-0.9 -17.9,-2.7 -26.7,-5 -8.9,-2.3 -17.7,-5 -26.4,-8.1 4,2.3 8.1,4.5 12.3,6.6 4.2,2 8.4,4 12.7,5.7 8.6,3.6 17.6,6.5 26.9,8.5 4.7,1 9.4,1.7 14.3,2 2.4,0.1 4.9,0.2 7.4,0 1.3,0 2.5,-0.2 3.8,-0.3 1.3,-0.2 2.6,-0.3 3.8,-0.6 2.6,-0.5 5.2,-1.3 7.8,-2.6 2.6,-1.2 5.1,-2.9 7.2,-5.1 2.2,-2.2 3.9,-5 4.9,-7.9 l 0.4,-1.1 0.3,-1.1 c 0.2,-0.7 0.4,-1.5 0.5,-2.2 l 0.2,-2.2 c 0.3,-0.8 0.2,-1.5 0.2,-2.2 z"
   class="st3"
   inkscape:connector-curvature="0"
   style="fill:#80869b;stroke-width:2.02331567" />

		</g>

	</g>

	<circle
   id="circle3420"
   r="16.799999"
   cy="68.400002"
   cx="86.699997"
   class="st3"
   style="fill:#80869b;stroke-width:2.02331567" />

</g>
    </g>
    <g
       id="g3513"
       transform="translate(11.051817,-72.162769)">
      <g
         style="stroke-width:2.20438433"
         transform="matrix(0.1600346,0,0,0.1600346,-173.75236,8.5937326)"
         id="g3374">
        <path
           style="fill:#182e90;stroke-width:2.20438433"
           inkscape:connector-curvature="0"
           class="kwarcblue"
           d="M 27.41,15.29 C 41.33,5.47 59.49,1.47 76.12,5.23 56.77,4.09 38.13,14.29 26.89,29.73 c 6.27,-4.09 13.56,-6.82 21.13,-6.67 13.31,-0.14 26.24,7.76 32.24,19.62 3.52,7.1 5.29,15.51 3.34,23.31 C 83.72,57.12 80.29,48.26 73.87,42.08 60.11,28.06 34.9,26.65 20.66,40.64 13.83,54.23 11.92,70.39 15.19,85.24 16.25,77.3 19,69.4 24.57,63.47 31.47,55.83 41.67,51.25 51.99,51.45 63.82,51.52 75.45,57.79 81.92,67.7 77.56,63.76 72.85,59.93 67.01,58.5 47.61,52.92 25.63,65.86 20.2,85.1 c -1.26,5.04 -2.63,10.8 0.19,15.56 6.94,14.47 20.01,25.75 35.52,30.02 C 28.79,127.61 5.13,105.16 1.18,78.07 0.98,71.04 0.9,63.99 1.18,56.97 3.66,40.26 13.56,24.89 27.41,15.29 Z"
           id="path3347" />
        <path
           style="fill:#182e90;stroke-width:2.20438433"
           inkscape:connector-curvature="0"
           class="kwarcblue"
           d="m 36.68,75.5 c 2.08,-0.03 4.16,-0.05 6.24,-0.08 -1.34,6.39 -2.77,12.77 -4.01,19.19 2.95,-2.74 5.13,-6.17 7.98,-8.99 2.1,-0.51 4.3,-0.23 6.44,-0.31 -2.8,3.46 -6.12,6.45 -8.86,9.94 1.42,4.02 3.51,7.77 5.23,11.67 -2.36,-0.04 -4.71,-0.06 -7.07,-0.1 -1.21,-3.59 -2.42,-7.19 -4.07,-10.61 -0.85,3.52 -1.51,7.07 -2.18,10.63 -2.08,0 -4.16,0.01 -6.25,0.02 2.29,-10.43 4.39,-20.9 6.55,-31.36 z"
           id="path3349" />
        <path
           style="fill:#182e90;stroke-width:2.20438433"
           inkscape:connector-curvature="0"
           class="kwarcblue"
           d="m 67.21,85.35 c 1.68,-0.01 3.36,-0.03 5.04,-0.06 0.32,4.97 0.41,9.96 0.5,14.94 2.28,-4.92 4.18,-10 6.47,-14.91 1.91,0.01 3.81,0.02 5.72,0.05 -3.67,6.99 -6.78,14.28 -10.45,21.27 -1.95,0.44 -3.98,0.2 -5.96,0.24 -0.18,-4.71 -0.48,-9.41 -0.37,-14.12 -2.38,4.54 -4.24,9.33 -6.7,13.83 -1.89,0.61 -3.98,0.18 -5.94,0.25 -0.25,-7.13 -0.9,-14.25 -1.42,-21.37 2.07,-0.05 4.15,-0.1 6.22,-0.18 0.01,4.96 -0.18,9.92 -0.03,14.88 2.28,-4.95 4.44,-9.96 6.92,-14.82 z"
           id="path3351" />
        <path
           style="fill:#182e90;stroke-width:2.20438433"
           inkscape:connector-curvature="0"
           class="kwarcblue"
           d="m 97.14,84.88 c -2.07,0.01 -4.14,0.38 -6.07,1.23 -5.22,2.3 -7.73,8.37 -7.59,13.8 -0.04,3.69 2.96,6.84 6.56,7.29 3.55,0.45 7.33,0.15 10.59,-1.41 1.81,-6.33 2.58,-12.92 4.33,-19.27 -2.46,-1.02 -5.15,-1.64 -7.82,-1.64 z m 0.96,3.65 c -1.02,4.97 -2.02,9.93 -3.06,14.9 -1.7,-0.23 -4.05,0.28 -4.92,-1.64 -1.16,-3.82 0.13,-8.15 2.37,-11.34 1.25,-1.85 3.62,-1.85 5.61,-1.92 z"
           id="path3353" />
        <path
           style="fill:#182e90;stroke-width:2.20438433"
           inkscape:connector-curvature="0"
           class="kwarcblue"
           d="m 108.55,86.45 c 3.84,-1.29 7.89,-1.68 11.92,-1.59 -0.56,1.44 -1.13,2.87 -1.69,4.31 -1.48,0 -2.96,-0.03 -4.44,-0.01 -1.22,5.9 -2.47,11.8 -3.65,17.72 -2.12,0.08 -4.23,0.16 -6.35,0.24 1.35,-6.9 2.91,-13.76 4.21,-20.67 z"
           id="path3355" />
        <path
           style="fill:#182e90;stroke-width:2.20438433"
           inkscape:connector-curvature="0"
           class="kwarcblue"
           d="m 123.96,86.99 c 3.09,-2.73 7.39,-2.19 11.04,-1.14 v 1.45 c -0.39,0.53 -1.17,1.58 -1.56,2.11 -1.94,0.06 -4.38,-0.62 -5.74,1.22 -2.31,2.76 -3.27,6.76 -2.47,10.25 0.84,2.54 3.81,1.42 5.8,1.65 0.04,0.94 0.11,2.82 0.15,3.76 -3.61,1.22 -8.41,2.02 -10.94,-1.6 -3.58,-5.6 -1.11,-13.6 3.72,-17.7 z"
           id="path3357" />
      </g>
      <text
         id="text3484"
         y="38.918346"
         x="-138.97839"
         style="font-style:normal;font-variant:normal;font-weight:bold;font-stretch:normal;font-size:3.95413542px;line-height:1em;font-family:Roboto;-inkscape-font-specification:'Roboto Bold';text-align:end;letter-spacing:0px;word-spacing:0px;writing-mode:lr-tb;text-anchor:end;fill:#000000;fill-opacity:1;stroke:none;stroke-width:0.26458329"
         xml:space="preserve"><tspan
           style="font-style:normal;font-variant:normal;font-weight:500;font-stretch:normal;font-size:9.48992443px;font-family:Roboto;-inkscape-font-specification:'Roboto Medium';stroke-width:0.26458329"
           y="38.918346"
           x="-138.97839"
           id="tspan3482"
           sodipodi:role="line">arXMLiv</tspan></text>
    </g>
    <g
       id="g3522"
       transform="translate(-3.4596198,108.51142)">
      <g
         style="stroke-width:0.52178198"
         transform="matrix(0.50707639,0,0,0.50707639,-157.04665,-70.411875)"
         id="g3467">
	<path
   style="fill:#f4d35e;stroke-width:0.52178198"
   inkscape:connector-curvature="0"
   class="st0"
   d="M 5.8,55.4 2.3,50.2 C 5.7,47.9 4.2,43.9 3.7,42.5 3.4,41.6 3,40.7 2.5,39.7 1.5,37.4 0.4,35 0.1,32.2 -0.4,27.9 1,23.6 3.9,20.4 c 2,-2.1 4.4,-3.7 7.2,-4.6 3.7,-1.3 7.4,-1.7 11.1,-2 1.3,-0.1 2.6,-0.2 3.9,-0.4 7.5,-1 15.1,-3.9 22.4,-8.7 l 3.4,5.2 c -8.1,5.3 -16.6,8.6 -25,9.7 -1.4,0.2 -2.8,0.3 -4.1,0.4 -3.4,0.3 -6.6,0.6 -9.5,1.7 -1.8,0.6 -3.4,1.6 -4.7,3 -1.7,1.8 -2.5,4.3 -2.2,6.8 0.2,1.8 1,3.7 1.9,5.7 0.5,1 0.9,2.1 1.3,3.2 2.3,6.3 0.9,11.8 -3.8,15 z"
   id="path3459" />

	<path
   style="fill:#5492ef;stroke-width:0.52178198"
   inkscape:connector-curvature="0"
   class="st1"
   d="m 15.4,26.6 c 7.3,0.2 14.6,-0.5 21.7,-1.9 7.1,-1.4 14,-3.5 20.6,-6.4 l 2.3,5.9 c -10.8,3.5 -22.1,5.3 -33.5,5.2 -3.8,0 -7.5,-0.2 -11.2,-0.7 z"
   id="path3461" />

	<path
   style="fill:#1857b6;stroke-width:0.52178198"
   inkscape:connector-curvature="0"
   class="st2"
   d="m 15.7,33 c 10.2,1.7 20.5,1.8 30.7,0.4 3.3,-0.5 6.7,-1.1 9.9,-1.9 l 1.2,6.2 c -14.2,2 -28.6,1.1 -42.4,-2.6 z"
   id="path3463" />

	<path
   style="fill:#0f3875;stroke-width:0.52178198"
   inkscape:connector-curvature="0"
   class="st3"
   d="m 14.5,39.1 c 9.8,3.4 20.1,5.4 30.6,5.8 3.4,0.1 6.9,0 10.3,-0.2 L 55.6,51 C 41.1,50.7 26.9,47.3 13.7,41.3 Z"
   id="path3465" />

</g>
      <text
         id="text3484-0"
         y="-31.598183"
         x="-126.76173"
         style="font-style:normal;font-variant:normal;font-weight:bold;font-stretch:normal;font-size:3.91838837px;line-height:1em;font-family:'Linux Libertine O';-inkscape-font-specification:'Linux Libertine O Bold';text-align:end;letter-spacing:0px;word-spacing:0px;writing-mode:lr-tb;text-anchor:end;fill:#1f2328;fill-opacity:1;stroke:none;stroke-width:0.26458332"
         xml:space="preserve"><tspan
           style="font-style:normal;font-variant:normal;font-weight:bold;font-stretch:normal;font-size:9.40413189px;font-family:'Noto Sans';-inkscape-font-specification:'Noto Sans Bold';fill:#1f2328;fill-opacity:1;stroke-width:0.26458332"
           y="-31.598183"
           x="-126.76173"
           id="tspan3482-9"
           sodipodi:role="line">S2ORC</tspan></text>
    </g>
  </g>
  <style
     id="style3345">
    .kwarcblue { fill:#182e90; }
  </style>
  <style
     id="style3376"
     type="text/css">
	.st0{fill:#E86161;}
	.st1{fill:#C0C2CC;}
	.st2{fill:#BFC2CD;}
	.st3{fill:#80869B;}
</style>
  <style
     id="style3457"
     type="text/css">
	.st0{fill:#F4D35E;}
	.st1{fill:#5492EF;}
	.st2{fill:#1857B6;}
	.st3{fill:#0F3875;}
</style>
</svg>
